<svg xmlns="http://www.w3.org/2000/svg" xmlns:xlink="http://www.w3.org/1999/xlink" viewBox="0,0,256,256" width="64px" height="64px"><g fill="#5173a6" fill-rule="nonzero" stroke="none" stroke-width="1" stroke-linecap="butt" stroke-linejoin="miter" stroke-miterlimit="10" stroke-dasharray="" stroke-dashoffset="0" font-family="none" font-weight="none" font-size="none" text-anchor="none" style="mix-blend-mode: normal"><g transform="scale(4,4)"><path d="M32,4c-15.464,0 -28,12.536 -28,28c0,15.464 12.536,28 28,28c15.464,0 28,-12.536 28,-28c0,-15.464 -12.536,-28 -28,-28zM32,6c14.336,0 26,11.664 26,26c0,14.336 -11.664,26 -26,26c-14.336,0 -26,-11.664 -26,-26c0,-14.336 11.664,-26 26,-26zM24.98633,20.19922c-1.02534,0.03281 -1.98633,0.86792 -1.98633,1.98633v19.62891c0,1.49121 1.70848,2.4779 3,1.73242l17,-9.81445c1.29164,-0.74555 1.29164,-2.7193 0,-3.46484l-17,-9.81445c-0.32288,-0.18637 -0.67189,-0.26484 -1.01367,-0.25391zM25,22.18555l17,9.81445l-17,9.81445zM51.82031,34.80469c-0.543,-0.105 -1.06887,0.25097 -1.17187,0.79297c-0.103,0.542 0.25292,1.06592 0.79492,1.16992l1.96289,0.37695c0.063,0.012 0.12645,0.01758 0.18945,0.01758c0.47,0 0.88942,-0.33255 0.98242,-0.81055c0.103,-0.542 -0.25292,-1.06592 -0.79492,-1.16992zM50.20703,39.30078c-0.38986,-0.01153 -0.76575,0.20824 -0.9375,0.58398c-0.23,0.502 -0.00786,1.09717 0.49414,1.32617l1.81836,0.83203c0.135,0.062 0.27506,0.08984 0.41406,0.08984c0.38,0 0.74216,-0.21698 0.91016,-0.58398c0.23,-0.502 0.00981,-1.09522 -0.49219,-1.32422l-1.81836,-0.83203c-0.126,-0.05825 -0.25872,-0.08795 -0.38867,-0.0918zM47.58984,43.36133c-0.25413,0.0305 -0.49647,0.15655 -0.66797,0.37305c-0.341,0.434 -0.26603,1.0623 0.16797,1.4043l1.57031,1.23828c0.183,0.144 0.40119,0.21289 0.61719,0.21289c0.296,0 0.58911,-0.13086 0.78711,-0.38086c0.341,-0.434 0.26798,-1.0623 -0.16602,-1.4043l-1.57227,-1.23633c-0.217,-0.1715 -0.4822,-0.23753 -0.73633,-0.20703zM44.47266,46.7168c-0.254,-0.0305 -0.52028,0.03553 -0.73828,0.20703c-0.434,0.341 -0.50897,0.9703 -0.16797,1.4043l1.23828,1.57031c0.198,0.25 0.49111,0.38086 0.78711,0.38086c0.216,0 0.43319,-0.06889 0.61719,-0.21289c0.434,-0.341 0.50897,-0.9703 0.16797,-1.4043l-1.23828,-1.57031c-0.171,-0.2165 -0.41202,-0.3445 -0.66602,-0.375zM40.27148,49.17773c-0.12995,0.00384 -0.26072,0.03355 -0.38672,0.0918c-0.502,0.229 -0.72119,0.82417 -0.49219,1.32617l0.83203,1.81836c0.168,0.367 0.53016,0.58398 0.91016,0.58398c0.138,0 0.27906,-0.0298 0.41406,-0.0918c0.502,-0.229 0.72314,-0.82222 0.49414,-1.32422l-0.83203,-1.81836c-0.17175,-0.37575 -0.54959,-0.59747 -0.93945,-0.58594zM35.59766,50.64844c-0.542,0.104 -0.89892,0.62792 -0.79492,1.16992l0.37695,1.96484c0.091,0.479 0.51047,0.8125 0.98047,0.8125c0.063,0 0.12741,-0.00653 0.19141,-0.01953c0.542,-0.104 0.89697,-0.62792 0.79297,-1.16992l-0.37695,-1.96484c-0.105,-0.542 -0.63292,-0.89797 -1.16992,-0.79297z"></path></g></g></svg>